<svg id="Icon_Set" enable-background="new 0 0 256 256" height="512" viewBox="0 0 256 256" width="512" xmlns="http://www.w3.org/2000/svg"><path d="m174.225 25.075c-30.975 0-56.092 11.577-56.092 25.88 0-14.303-25.117-25.88-56.092-25.88s-56.091 11.577-56.091 25.88v139.232.997h.047 112.09.094 112.09.047v-.997-139.232c-.001-14.303-25.117-25.88-56.093-25.88z" fill="#ffe2e2"/><path d="m155.926 217.437c1.396.754 1.401 2.756.007 3.516l-7.505 4.093-10.741 5.858-.027-11.672-.027-11.672 10.768 5.814z" fill="#87828e"/><path d="m24.382 207.56.054 23.344h113.252l-.054-23.344z" fill="#ff4a73"/><path d="m3.995 217.713.007 3.127c.013 5.582 4.548 10.097 10.129 10.085l10.305-.021-.054-23.344-10.299.021c-5.584.011-10.101 4.548-10.088 10.132z" fill="#87828e"/><path d="m230.32 50.95v140.23h-15v-140.23c0-13.13-21.16-23.96-48.59-25.65 2.45-.15 4.96-.23 7.5-.23 30.97 0 56.09 11.58 56.09 25.88z" fill="#ffcfcf"/><path d="m69.54 25.3c-27.43 1.69-48.59 12.52-48.59 25.65v140.23h-15v-140.23c0-14.3 25.12-25.88 56.09-25.88 2.54 0 5.05.08 7.5.23z" fill="#ffefee"/><path d="m230.317 190.187c0 .327-.016.67-.047.997h-112.09c-.031-.327-.047-.67-.047-.997 0-14.288 25.117-25.88 56.092-25.88s56.092 11.592 56.092 25.88z" fill="#ffe2e2"/><path d="m118.134 190.187c0 .327-.016.67-.047.997h-112.09c-.031-.327-.047-.67-.047-.997 0-14.288 25.117-25.88 56.092-25.88s56.092 11.592 56.092 25.88z" fill="#ffe2e2"/><path d="m230.32 190.19c0 .32-.02.67-.05.99h-15c.03-.32.05-.67.05-.99 0-13.12-21.16-23.96-48.59-25.65 2.45-.15 4.96-.23 7.5-.23 30.97 0 56.09 11.59 56.09 25.88z" fill="#ffcfcf"/><path d="m133.13 190.19c0 .32.02.67.05.99h-15c-.03-.32-.05-.67-.05-.99 0-14.29 25.12-25.88 56.1-25.88 2.54 0 5.05.08 7.5.23-27.44 1.69-48.6 12.53-48.6 25.65z" fill="#ffefee"/><path d="m118.13 190.19c0 .32-.01.67-.04.99h-15c.03-.32.04-.67.04-.99 0-13.12-21.15-23.96-48.59-25.65 2.45-.15 4.96-.23 7.5-.23 30.98 0 56.09 11.59 56.09 25.88z" fill="#ffcfcf"/><path d="m20.95 190.19c0 .32.02.67.05.99h-15c-.03-.32-.05-.67-.05-.99 0-14.29 25.12-25.88 56.09-25.88 2.54 0 5.05.08 7.5.23-27.43 1.69-48.59 12.53-48.59 25.65z" fill="#ffefee"/><path d="m241.005 210.388h-57.134c-5.523 0-10-4.477-10-10v-46.622c0-5.523 4.477-10 10-10h57.134c5.523 0 10 4.477 10 10v46.622c0 5.523-4.477 10-10 10z" fill="#f9d335"/><path d="m251.01 153.77v46.62c0 5.52-4.48 10-10 10h-15c5.52 0 10-4.48 10-10v-46.62c0-5.53-4.48-10-10-10h15c5.52 0 10 4.47 10 10z" fill="#f2c300"/><path d="m198.87 210.39h-15c-5.52 0-10-4.48-10-10v-46.62c0-5.53 4.48-10 10-10h15c-5.52 0-10 4.47-10 10v46.62c0 5.52 4.48 10 10 10z" fill="#f9e27d"/><path d="m24.38 207.56v.02h-.3c-5.58.01-10.1 4.55-10.09 10.13l.01 3.13c.01 5.32 4.14 9.68 9.37 10.06l-9.24.03c-5.58.01-10.12-4.51-10.13-10.09l-.01-3.13c-.01-5.58 4.51-10.12 10.09-10.13z" fill="#a4a4a5"/><path d="m137.69 230.9h-15l-.06-23.34h15z" fill="#ea2a6a"/><path d="m39.44 230.9h-15l-.06-23.34h15z" fill="#f973a3"/><path d="m145.68 226.55-7.99 4.35-.03-11.67-.03-11.67 8.01 4.32.02 7.35z" fill="#a4a4a5"/><g fill="#5f266d"><path d="m44.41 68.42h35.7c5.288 0 5.285-8 0-8h-35.7c-5.285 0-5.293 8 0 8z"/><path d="m30.25 92.78h64.02c5.285 0 5.293-8 0-8h-64.02c-5.285 0-5.293 8 0 8z"/><path d="m94.27 109.14h-64.02c-5.281 0-5.294 8 0 8h64.02c5.305 0 5.275-8 0-8z"/><path d="m94.27 133.51h-64.02c-5.285 0-5.293 8 0 8h64.02c5.285 0 5.293-8 0-8z"/><path d="m42.71 46.17c5.175-1.102 3.503-8.919-1.66-7.82-14.69 3.11-20.27 9.92-20.86 10.68-3.264 4.287 3.189 8.992 6.35 4.87.04-.05 4.27-5.21 16.17-7.73z"/><path d="m56.76 44.84c.49 0 .98 0 1.48.01h.07c5.24 0 5.318-7.882.08-8-.54 0-1.08-.01-1.6-.01-5.362.073-5.261 7.976-.03 8z"/><path d="m241.51 139.77h-6.69v-88.81c0-16.76-26.4-29.89-60.09-29.89-25.91 0-47.49 7.76-56.1 18.96-8.6-11.2-30.19-18.96-56.09-18.96-33.69 0-60.09 13.13-60.09 29.89v140.22c0 2.215 1.871 4 4.05 4h163.87v5.21c0 7.72 6.28 14 14 14h57.14c7.72 0 14-6.28 14-14v-46.62c0-7.72-6.28-14-14-14zm6 60.62c0 3.31-2.7 6-6 6h-57.14c-3.31 0-6-2.69-6-6 0-6.955 0-39.809 0-46.62 0-3.31 2.69-6 6-6h57.14c3.3 0 6 2.69 6 6zm-72.78-171.32c30.69 0 52.09 11.54 52.09 21.89v88.81h-42.45c-7.72 0-14 6.28-14 14v6.62c-20.65.7-38.11 6.37-47.74 14.68v-124.11c0-10.35 21.4-21.89 52.1-21.89zm-164.28 21.89c0-10.35 21.39-21.89 52.09-21.89s52.09 11.54 52.09 21.89v124.11c-10.29-8.89-29.56-14.76-52.09-14.76s-41.8 5.87-52.09 14.76zm.58 136.22c3.61-9.45 23.76-18.87 51.51-18.87s47.9 9.42 51.51 18.87zm112.18 0c3.43-8.95 21.67-17.87 47.16-18.78v18.78z"/><path d="m232.11 161.68c-6.222 5.069-22.275 18.148-28.5 23.22-.17.14-.42.13-.58-.02-11.451-10.757-9.344-8.777-11.74-11.03-3.848-3.633-9.339 2.2-5.48 5.82 9.464 8.895 7.008 6.586 11.74 11.04 3.059 2.888 7.863 3.05 11.11.39 9.131-7.442 23.416-19.07 28.5-23.22 4.124-3.376-1.025-9.511-5.05-6.2z"/><path d="m156.88 68.42h35.69c5.285 0 5.293-8 0-8h-35.69c-5.285 0-5.293 8 0 8z"/><path d="m142.71 92.78h64.03c5.285 0 5.293-8 0-8h-64.03c-5.285 0-5.293 8 0 8z"/><path d="m142.71 117.14h64.03c5.303 0 5.276-8 0-8h-64.03c-5.281 0-5.294 8 0 8z"/><path d="m142.71 141.51h24.26c5.285 0 5.293-8 0-8h-24.26c-5.285 0-5.293 8 0 8z"/><path d="m158.33 213.92-18.21-9.83c-.52-.312-1.248-.53-1.99-.53-133.036 0-108.257-.01-123.55.02-7.817.021-14.09 6.341-14.09 14.14l.01 3.13c.02 7.77 6.35 14.08 14.11 14.08h.03c13.724-.04-4.973-.03 123.55-.03.691 0 1.371-.189 1.91-.48l18.25-9.96c4.237-2.305 4.094-8.335-.02-10.54zm-16.16 10.25-.02-9.9 9.13 4.94zm-113.28-12.61h105.25l.04 15.34h-105.25zm-20.39 9.27-.01-3.13c0-3.41 2.763-6.12 6.1-6.12l6.3-.01.04 15.34-6.31.02c-3.36-.01-6.11-2.73-6.12-6.1z"/></g></svg>