<svg height="512" viewBox="0 0 60 46" width="512" xmlns="http://www.w3.org/2000/svg"><g id="Page-1" fill="none" fill-rule="evenodd"><g id="006---Book-Shelf" fill-rule="nonzero"><g id="colour" transform="translate(1 1)"><rect id="Rectangle-path" fill="#fa9600" height="6" rx="1" width="58" y="30"/><path id="Shape" d="m57 30h-3c.5522847 0 1 .4477153 1 1v4c0 .5522847-.4477153 1-1 1h3c.5522847 0 1-.4477153 1-1v-4c0-.5522847-.4477153-1-1-1z" fill="#ef7b00"/><path id="Shape" d="m7 36v7c0 .5522847-.44771525 1-1 1h-2c-.55228475 0-1-.4477153-1-1v-7z" fill="#9c5126"/><path id="Shape" d="m55 36v7c0 .5522847-.4477153 1-1 1h-2c-.5522847 0-1-.4477153-1-1v-7z" fill="#9c5126"/><path id="Shape" d="m8 24v6h-3c-1.1045695 0-2-.8954305-2-2v-2c0-1.1045695.8954305-2 2-2z" fill="#8e5527"/><path id="Rectangle-path" d="m8 24h11v6h-11z" fill="#627d8b"/><path id="Shape" d="m29 26v2c0 1.1045695-.8954305 2-2 2h-3v-6h3c1.1045695 0 2 .8954305 2 2z" fill="#8e5527"/><path id="Shape" d="m39 2v3h-6v-3c0-1.1045695.8954305-2 2-2h2c1.1045695 0 2 .8954305 2 2z" fill="#8e5527"/><path id="Rectangle-path" d="m33 5h6v15h-6z" fill="#627d8b"/><path id="Rectangle-path" d="m36 5h3v15h-3z" fill="#384750"/><path id="Rectangle-path" d="m33 20h6v5h-6z" fill="#ffe800"/><path id="Rectangle-path" d="m36 20h3v5h-3z" fill="#fbbe00"/><path id="Shape" d="m39 25v3c0 1.1045695-.8954305 2-2 2h-2c-1.1045695 0-2-.8954305-2-2v-3z" fill="#8e5527"/><path id="Shape" d="m51.36 29.3-1.91.61c-.1945262.0591644-.3966761.0894869-.6.09-.8742182.0009272-1.6477349-.5660484-1.91-1.4l-.94-2.86 5.71-1.81.9 2.86c.3378134 1.0375701-.2183849 2.1544162-1.25 2.51z" fill="#8e5527"/><path id="Shape" d="m51.75 23.93-5.71 1.81-1.51-4.76 5.72-1.81z" fill="#ffe800"/><path id="Shape" d="m50.25 19.17-2.73.86 1.23 3.9-2.98.95.27.86 5.71-1.81z" fill="#fbbe00"/><path id="Rectangle-path" d="m41.951 5.453h5.977v14.944h-5.977z" fill="#627d8b" transform="matrix(.954 -.301 .301 .954 -1.806 14.133)"/><path id="Shape" d="m45.72 4.87-2.73.86 4.26 13.44-2.99.95.27.86 5.72-1.81z" fill="#384750"/><g fill="#8e5527"><path id="Shape" d="m45.72 4.87-5.72 1.81-.91-2.86c-.0591644-.19452616-.0894869-.39667614-.09-.6-.0009272-.87421821.5660484-1.64773488 1.4-1.91l1.9-.61c1.0520394-.3333958 2.1753026.24837394 2.51 1.3z"/><path id="Shape" d="m5 18v6h-3c-1.1045695 0-2-.8954305-2-2v-2c0-1.1045695.8954305-2 2-2z"/><path id="Shape" d="m26 20v2c0 1.1045695-.8954305 2-2 2h-3v-6h3c1.1045695 0 2 .8954305 2 2z"/></g><path id="Rectangle-path" d="m19 24h5v6h-5z" fill="#ffe800"/><path id="Rectangle-path" d="m16 18h5v6h-5z" fill="#ffe800"/><path id="Shape" d="m8 12v6h-3c-1.1045695 0-2-.8954305-2-2v-2c0-1.1045695.8954305-2 2-2z" fill="#8e5527"/><path id="Rectangle-path" d="m5 18h11v6h-11z" fill="#627d8b"/><path id="Rectangle-path" d="m8 12h11v6h-11z" fill="#627d8b"/><path id="Rectangle-path" d="m16 12h3v6h-3z" fill="#384750"/><path id="Rectangle-path" d="m19 12h5v6h-5z" fill="#ffe800"/><path id="Rectangle-path" d="m21 12h3v6h-3z" fill="#fbbe00"/><path id="Rectangle-path" d="m13 18h3v6h-3z" fill="#384750"/><path id="Rectangle-path" d="m18 18h3v6h-3z" fill="#fbbe00"/><path id="Rectangle-path" d="m16 24h3v6h-3z" fill="#384750"/><path id="Rectangle-path" d="m21 24h3v6h-3z" fill="#fbbe00"/><path id="Shape" d="m29 14v2c0 1.1045695-.8954305 2-2 2h-3v-6h3c1.1045695 0 2 .8954305 2 2z" fill="#8e5527"/></g><g id="outline" fill="#000"><path id="Shape" d="m58 30h-3.73c.4816789-.7439.6097993-1.6627066.35-2.51l-7.85-24.79c-.2410541-.75872186-.7737925-1.39052105-1.4808974-1.75626496s-1.5305873-.43543821-2.2891026-.19373504l-1.91.6c-.1610132.05983579-.3180049.12998102-.47.21-.5242483-.95815861-1.527807-1.55569738-2.62-1.56h-2c-1.6568542 0-3 1.34314575-3 3v26c.0027046.3411432.0635775.679326.18 1h-2.36c.1164225-.320674.1772954-.6588568.18-1v-2c0-1.6568542-1.3431458-3-3-3h-.18c.1164225-.320674.1772954-.6588568.18-1v-2c-.0027046-.3411432-.0635775-.679326-.18-1h.18c1.6568542 0 3-1.3431458 3-3v-2c0-1.6568542-1.3431458-3-3-3h-22c-1.65685425 0-3 1.3431458-3 3v2c.00270456.3411432.06357745.679326.18 1h-.18c-1.65685425 0-3 1.3431458-3 3v2c0 .7956495.31607052 1.5587112.87867966 2.1213203.56260913.5626092 1.32567087.8786797 2.12132034.8786797h.18c-.11642255.320674-.17729544.6588568-.18 1v2c.00270456.3411432.06357745.679326.18 1h-1.18c-1.1045695 0-2 .8954305-2 2v4c0 1.1045695.8954305 2 2 2h1v6c0 1.1045695.8954305 2 2 2h2c1.1045695 0 2-.8954305 2-2v-6h42v6c0 1.1045695.8954305 2 2 2h2c1.1045695 0 2-.8954305 2-2v-6h1c1.1045695 0 2-.8954305 2-2v-4c0-1.1045695-.8954305-2-2-2zm-5.29-1.91c.0815936.253273.0588801.5286212-.0631131.7651004-.1219932.2364791-.3332051.4145861-.5868869.4948996l-1.91.6c-.2513175.0811392-.5245279.05957-.76-.06-.2352552-.1237278-.4115712-.3360266-.49-.59l-.61-1.91 3.82-1.2zm-5-2.6-.91-2.86 3.82-1.21.9 2.86zm-1.51-4.77-3.95-12.39 3.82-1.21 3.93 12.39zm-7.2-.72h-4v-13h4zm0 2v3h-4v-3zm2 7v-18l6 18.9c-.0016677.0333125-.0016677.0666875 0 .1h-6.18c.1164225-.320674.1772954-.6588568.18-1zm.7-25.74 1.91-.6c.0958176-.03594029.1977054-.05292159.3-.05.159619.00189458.3167916.03947934.46.11.2352552.12372779.4115712.33602657.49.59l.6 1.9-3.81 1.21-.6-1.9c-.0815936-.25327301-.0588801-.52862124.0631131-.76510037.1219932-.23647914.3332051-.41458614.5868869-.49489963zm-5.7-1.26h2c.5522847 0 1 .44771525 1 1v2h-4v-2c0-.55228475.4477153-1 1-1zm-1 27v-2h4v2c0 .5522847-.4477153 1-1 1h-2c-.5522847 0-1-.4477153-1-1zm-6-2v2c0 .5522847-.4477153 1-1 1h-2v-4h2c.5522847 0 1 .4477153 1 1zm-22-7h9v4h-9zm17-2h-3v-4h3zm-6 6v-4h3v4zm1-6h-9v-4h9zm0 8v4h-9v-4zm2 0h3v4h-3zm5-5v2c0 .5522847-.4477153 1-1 1h-2v-4h2c.5522847 0 1 .4477153 1 1zm3-6v2c0 .5522847-.4477153 1-1 1h-2v-4h2c.5522847 0 1 .4477153 1 1zm-24 2v-2c0-.5522847.44771525-1 1-1h2v4h-2c-.55228475 0-1-.4477153-1-1zm-3 6v-2c0-.5522847.44771525-1 1-1h2v4h-2c-.55228475 0-1-.4477153-1-1zm3 6v-2c0-.5522847.44771525-1 1-1h2v4h-2c-.55228475 0-1-.4477153-1-1zm2 15h-2v-6h2zm48 0h-2v-6h2zm-53-8v-4h56v4z"/></g></g></g></svg>