<svg id="Capa_1" enable-background="new 0 0 512 512" height="512" viewBox="0 0 512 512" width="512" xmlns="http://www.w3.org/2000/svg"><g><g><g clip-rule="evenodd" fill-rule="evenodd"><path d="m383.499 444.5v-437h-359.998v497h299.999v-60zm-194.999-304.749c0-33.137 26.863-60 60-60s60 26.863 60 60c0 27.958-19.122 51.449-45 58.109v9.39c0 8.25-6.75 15-15 15s-15-6.75-15-15v-22.5c0-8.25 6.75-15 15-15 16.569 0 30-13.431 30-30s-13.431-30-30-30-30 13.431-30 30h-30zm60 112.5c8.284 0 15 6.715 15 15 0 8.284-6.716 15-15 15s-15-6.716-15-15c0-8.285 6.716-15 15-15z" fill="#e5ecf5"/><path d="m263.5 197.861c25.878-6.661 45-30.152 45-58.109 0-33.137-26.863-60-60-60s-60 26.863-60 60h30c0-16.568 13.431-30 30-30s30 13.431 30 30-13.431 30-30 30c-8.25 0-15 6.75-15 15v22.5c0 8.25 6.75 15 15 15s15-6.75 15-15zm0 69.389c0-8.284-6.716-15-15-15s-15 6.715-15 15c0 8.284 6.716 15 15 15s15-6.715 15-15z" fill="#efc17a"/><path d="m383.499 444.5h-59.999v60z" fill="#b0c5e0"/><path d="m428.499 435.919 30 44.25 30-44.25c0-8.284-6.716-15-15-15h-30c-8.284 0-15 6.715-15 15zm60-344.088v-44.999c0-8.284-6.716-15-15-15h-30c-8.284 0-15 6.716-15 15v44.999z" fill="#efc17a"/><path d="m443.499 420.919h30c8.284 0 15 6.716 15 15v-344.088h-60v344.088c0-8.285 6.716-15 15-15z" fill="#6e91ef"/><path d="m23.501 7.5h22.5v497h-22.5z" fill="#b0c5e0"/><path d="m428.499 435.919 30 44.25 11.25-16.594-18.75-27.657v-15h-7.5c-8.284.001-15 6.716-15 15.001zm37.5-404.088h-22.5c-8.284 0-15 6.716-15 15v44.999h22.5v-44.998c0-8.285 6.716-15.001 15-15.001z" fill="#e68f5e"/><path d="m443.499 420.919h7.5v-329.088h-22.5v344.088c0-8.285 6.716-15 15-15z" fill="#3d6dea"/></g><g><path d="m361 75h-15v-15h15zm0-30h-15v-15h15z" fill="#fff"/></g></g><g><path d="m248.5 497h15v15h-15z"/><path d="m16.001 512h217.499v-15h-202.499v-482h344.999v422h-60v60h-37.5v15h48.105l64.395-64.394v-447.606h-374.999zm349.392-60-34.393 34.394v-34.394z"/><path d="m495.999 129.33v-82.498c0-12.407-10.093-22.501-22.5-22.501h-30c-12.407 0-22.5 10.094-22.5 22.501v391.39l37.5 55.313 37.5-55.313v-293.892h-15v270.379c-2.347-.833-4.871-1.29-7.5-1.29h-7.5v-15h-15v15h-7.5c-2.629 0-5.153.458-7.5 1.29v-315.378h15v284.088h15v-284.088h15v29.999zm-52.5 299.089h30c3.471 0 6.39 2.373 7.241 5.579l-22.241 32.806-22.241-32.806c.851-3.206 3.77-5.579 7.241-5.579zm-7.5-344.088v-37.499c0-4.136 3.364-7.501 7.5-7.501h30c4.136 0 7.5 3.365 7.5 7.501v37.499z"/><path d="m316 139.751c0-37.219-30.28-67.499-67.5-67.499s-67.5 30.28-67.5 67.499v7.5h45v-7.5c0-12.406 10.094-22.499 22.5-22.499s22.5 10.093 22.5 22.499-10.093 22.5-22.5 22.5-22.5 10.094-22.5 22.5v22.5c0 12.406 10.094 22.5 22.5 22.5s22.5-10.094 22.5-22.5v-3.839c26.77-9.43 45-34.822 45-63.661zm-54.37 50.847-5.63 1.449v15.204c0 4.136-3.364 7.5-7.5 7.5s-7.5-3.364-7.5-7.5v-22.5c0-4.136 3.365-7.5 7.5-7.5 20.678 0 37.5-16.822 37.5-37.5 0-20.677-16.822-37.499-37.5-37.499-18.109 0-33.262 12.904-36.747 29.999h-15.219c3.65-25.408 25.563-44.999 51.966-44.999 28.949 0 52.5 23.551 52.5 52.499 0 23.972-16.189 44.881-39.37 50.847z"/><path d="m271 267.25c0-12.406-10.093-22.499-22.5-22.499s-22.5 10.093-22.5 22.499 10.093 22.5 22.5 22.5c12.406 0 22.5-10.094 22.5-22.5zm-30 0c0-4.135 3.365-7.499 7.5-7.499s7.5 3.364 7.5 7.499c0 4.136-3.364 7.5-7.5 7.5s-7.5-3.364-7.5-7.5z"/><path d="m76 192.251h75v15h-75z"/><path d="m76 117.252h75v15h-75z"/><path d="m76 432.248h217.499v15h-217.499z"/><path d="m76 229.75h75v15h-75z"/><path d="m76 154.751h75v15h-75z"/><path d="m76 319.749h101.25v15h-101.25z"/><path d="m192.249 394.748h101.25v15h-101.25z"/><path d="m76 394.748h101.249v15h-101.249z"/><path d="m76 357.249h217.499v15h-217.499z"/><path d="m192.25 319.749h101.249v15h-101.249z"/></g></g></svg>